<mxfile host="app.diagrams.net" modified="2023-05-23T08:36:51.997Z" agent="Mozilla/5.0 (Windows NT 10.0; Win64; x64) AppleWebKit/537.36 (KHTML, like Gecko) Chrome/112.0.0.0 Safari/537.36 OPR/98.0.0.0" etag="1MkjQjnpGi83E8OFTKj_" version="21.3.2" type="device">
  <diagram id="C5RBs43oDa-KdzZeNtuy" name="Page-1">
    <mxGraphModel dx="1105" dy="1763" grid="1" gridSize="10" guides="1" tooltips="1" connect="1" arrows="1" fold="1" page="1" pageScale="1" pageWidth="827" pageHeight="1169" math="0" shadow="0">
      <root>
        <mxCell id="WIyWlLk6GJQsqaUBKTNV-0" />
        <mxCell id="WIyWlLk6GJQsqaUBKTNV-1" parent="WIyWlLk6GJQsqaUBKTNV-0" />
        <mxCell id="lfGS22Z028f2h3oNydvS-5" style="edgeStyle=orthogonalEdgeStyle;orthogonalLoop=1;jettySize=auto;html=1;entryX=0;entryY=0.5;entryDx=0;entryDy=0;exitX=1;exitY=0.3333333333333333;exitDx=0;exitDy=0;exitPerimeter=0;rounded=1;endArrow=none;endFill=0;labelBackgroundColor=none;fontColor=default;" parent="WIyWlLk6GJQsqaUBKTNV-1" source="lfGS22Z028f2h3oNydvS-0" target="lfGS22Z028f2h3oNydvS-1" edge="1">
          <mxGeometry relative="1" as="geometry" />
        </mxCell>
        <mxCell id="lfGS22Z028f2h3oNydvS-0" value="Win OS User" style="shape=umlActor;verticalLabelPosition=bottom;verticalAlign=top;html=1;rounded=1;labelBackgroundColor=none;" parent="WIyWlLk6GJQsqaUBKTNV-1" vertex="1">
          <mxGeometry x="170" y="380" width="30" height="70" as="geometry" />
        </mxCell>
        <mxCell id="lfGS22Z028f2h3oNydvS-7" value="" style="edgeStyle=orthogonalEdgeStyle;rounded=1;orthogonalLoop=1;jettySize=auto;html=1;endArrow=none;endFill=0;labelBackgroundColor=none;fontColor=default;" parent="WIyWlLk6GJQsqaUBKTNV-1" source="lfGS22Z028f2h3oNydvS-1" target="lfGS22Z028f2h3oNydvS-6" edge="1">
          <mxGeometry relative="1" as="geometry" />
        </mxCell>
        <mxCell id="lfGS22Z028f2h3oNydvS-47" style="edgeStyle=orthogonalEdgeStyle;shape=connector;rounded=1;orthogonalLoop=1;jettySize=auto;html=1;entryX=0;entryY=0.5;entryDx=0;entryDy=0;labelBackgroundColor=default;strokeColor=default;fontFamily=Helvetica;fontSize=11;fontColor=default;endArrow=none;endFill=0;" parent="WIyWlLk6GJQsqaUBKTNV-1" source="lfGS22Z028f2h3oNydvS-1" target="lfGS22Z028f2h3oNydvS-46" edge="1">
          <mxGeometry relative="1" as="geometry">
            <Array as="points">
              <mxPoint x="560" y="420" />
              <mxPoint x="560" y="-125" />
              <mxPoint x="720" y="-125" />
            </Array>
          </mxGeometry>
        </mxCell>
        <mxCell id="lfGS22Z028f2h3oNydvS-66" style="edgeStyle=orthogonalEdgeStyle;shape=connector;rounded=1;orthogonalLoop=1;jettySize=auto;html=1;entryX=0;entryY=0.5;entryDx=0;entryDy=0;labelBackgroundColor=default;strokeColor=default;fontFamily=Helvetica;fontSize=11;fontColor=default;endArrow=none;endFill=0;" parent="WIyWlLk6GJQsqaUBKTNV-1" source="lfGS22Z028f2h3oNydvS-1" target="lfGS22Z028f2h3oNydvS-61" edge="1">
          <mxGeometry relative="1" as="geometry">
            <Array as="points">
              <mxPoint x="540" y="420" />
              <mxPoint x="540" y="-365" />
              <mxPoint x="720" y="-365" />
            </Array>
          </mxGeometry>
        </mxCell>
        <mxCell id="lfGS22Z028f2h3oNydvS-1" value="Start Spēles Bērniem.exe" style="ellipse;whiteSpace=wrap;html=1;rounded=1;labelBackgroundColor=none;" parent="WIyWlLk6GJQsqaUBKTNV-1" vertex="1">
          <mxGeometry x="354" y="380" width="120" height="80" as="geometry" />
        </mxCell>
        <mxCell id="lfGS22Z028f2h3oNydvS-6" value="Stop Spēles Bērniem.exe" style="ellipse;whiteSpace=wrap;html=1;rounded=1;labelBackgroundColor=none;" parent="WIyWlLk6GJQsqaUBKTNV-1" vertex="1">
          <mxGeometry x="354" y="540" width="120" height="80" as="geometry" />
        </mxCell>
        <mxCell id="lfGS22Z028f2h3oNydvS-20" value="" style="edgeStyle=orthogonalEdgeStyle;rounded=1;orthogonalLoop=1;jettySize=auto;html=1;endArrow=none;endFill=0;exitX=1;exitY=0.5;exitDx=0;exitDy=0;entryX=0;entryY=0.5;entryDx=0;entryDy=0;labelBackgroundColor=none;fontColor=default;" parent="WIyWlLk6GJQsqaUBKTNV-1" source="lfGS22Z028f2h3oNydvS-1" target="lfGS22Z028f2h3oNydvS-21" edge="1">
          <mxGeometry relative="1" as="geometry">
            <mxPoint x="484" y="430" as="sourcePoint" />
            <mxPoint x="780" y="40" as="targetPoint" />
            <Array as="points">
              <mxPoint x="570" y="420" />
              <mxPoint x="570" y="40" />
              <mxPoint x="890" y="40" />
            </Array>
          </mxGeometry>
        </mxCell>
        <mxCell id="lfGS22Z028f2h3oNydvS-21" value="Izmera Maina" style="ellipse;whiteSpace=wrap;html=1;rounded=1;labelBackgroundColor=none;" parent="WIyWlLk6GJQsqaUBKTNV-1" vertex="1">
          <mxGeometry x="890" width="120" height="80" as="geometry" />
        </mxCell>
        <mxCell id="lfGS22Z028f2h3oNydvS-46" value="Rotacija" style="ellipse;whiteSpace=wrap;html=1;rounded=1;labelBackgroundColor=none;" parent="WIyWlLk6GJQsqaUBKTNV-1" vertex="1">
          <mxGeometry x="720" y="-175" width="120" height="80" as="geometry" />
        </mxCell>
        <mxCell id="lfGS22Z028f2h3oNydvS-57" style="edgeStyle=orthogonalEdgeStyle;shape=connector;rounded=1;orthogonalLoop=1;jettySize=auto;html=1;entryX=0.5;entryY=1;entryDx=0;entryDy=0;labelBackgroundColor=default;strokeColor=default;fontFamily=Helvetica;fontSize=11;fontColor=default;endArrow=none;endFill=0;" parent="WIyWlLk6GJQsqaUBKTNV-1" source="lfGS22Z028f2h3oNydvS-61" target="lfGS22Z028f2h3oNydvS-63" edge="1">
          <mxGeometry relative="1" as="geometry" />
        </mxCell>
        <mxCell id="lfGS22Z028f2h3oNydvS-61" value="Vilksana" style="ellipse;whiteSpace=wrap;html=1;rounded=1;labelBackgroundColor=none;" parent="WIyWlLk6GJQsqaUBKTNV-1" vertex="1">
          <mxGeometry x="720" y="-415" width="120" height="80" as="geometry" />
        </mxCell>
        <mxCell id="lfGS22Z028f2h3oNydvS-63" value="Left mouse&amp;nbsp; button(Hold)" style="ellipse;whiteSpace=wrap;html=1;rounded=1;labelBackgroundColor=none;" parent="WIyWlLk6GJQsqaUBKTNV-1" vertex="1">
          <mxGeometry x="860" y="-470" width="80" height="70" as="geometry" />
        </mxCell>
        <mxCell id="4zYl6FvHi3WPqrHE8KtG-0" value="Platums+" style="rounded=1;whiteSpace=wrap;html=1;" vertex="1" parent="WIyWlLk6GJQsqaUBKTNV-1">
          <mxGeometry x="780" y="180" width="120" height="60" as="geometry" />
        </mxCell>
        <mxCell id="4zYl6FvHi3WPqrHE8KtG-1" value="" style="endArrow=none;html=1;rounded=1;exitX=0.5;exitY=0;exitDx=0;exitDy=0;" edge="1" parent="WIyWlLk6GJQsqaUBKTNV-1" source="4zYl6FvHi3WPqrHE8KtG-0">
          <mxGeometry width="50" height="50" relative="1" as="geometry">
            <mxPoint x="890" y="130" as="sourcePoint" />
            <mxPoint x="940" y="80" as="targetPoint" />
            <Array as="points">
              <mxPoint x="840" y="80" />
            </Array>
          </mxGeometry>
        </mxCell>
        <mxCell id="4zYl6FvHi3WPqrHE8KtG-2" value="→" style="ellipse;whiteSpace=wrap;html=1;rounded=1;labelBackgroundColor=none;" vertex="1" parent="WIyWlLk6GJQsqaUBKTNV-1">
          <mxGeometry x="825" y="280" width="30" height="30" as="geometry" />
        </mxCell>
        <mxCell id="4zYl6FvHi3WPqrHE8KtG-5" value="" style="endArrow=none;html=1;rounded=1;labelBackgroundColor=default;strokeColor=default;fontFamily=Helvetica;fontSize=11;fontColor=default;shape=connector;exitX=0.5;exitY=0;exitDx=0;exitDy=0;" edge="1" parent="WIyWlLk6GJQsqaUBKTNV-1" source="4zYl6FvHi3WPqrHE8KtG-2">
          <mxGeometry width="50" height="50" relative="1" as="geometry">
            <mxPoint x="790" y="290" as="sourcePoint" />
            <mxPoint x="840" y="240" as="targetPoint" />
          </mxGeometry>
        </mxCell>
        <mxCell id="4zYl6FvHi3WPqrHE8KtG-6" value="Platums-" style="rounded=1;whiteSpace=wrap;html=1;" vertex="1" parent="WIyWlLk6GJQsqaUBKTNV-1">
          <mxGeometry x="960" y="180" width="120" height="60" as="geometry" />
        </mxCell>
        <mxCell id="4zYl6FvHi3WPqrHE8KtG-7" value="" style="endArrow=none;html=1;rounded=1;exitX=0.5;exitY=0;exitDx=0;exitDy=0;entryX=0.5;entryY=1;entryDx=0;entryDy=0;" edge="1" parent="WIyWlLk6GJQsqaUBKTNV-1" source="4zYl6FvHi3WPqrHE8KtG-6" target="lfGS22Z028f2h3oNydvS-21">
          <mxGeometry width="50" height="50" relative="1" as="geometry">
            <mxPoint x="1070" y="140.08" as="sourcePoint" />
            <mxPoint x="950" y="90" as="targetPoint" />
            <Array as="points">
              <mxPoint x="1020" y="80" />
            </Array>
          </mxGeometry>
        </mxCell>
        <mxCell id="4zYl6FvHi3WPqrHE8KtG-8" value="←" style="ellipse;whiteSpace=wrap;html=1;rounded=1;labelBackgroundColor=none;" vertex="1" parent="WIyWlLk6GJQsqaUBKTNV-1">
          <mxGeometry x="1005" y="280" width="30" height="30" as="geometry" />
        </mxCell>
        <mxCell id="4zYl6FvHi3WPqrHE8KtG-9" value="" style="endArrow=none;html=1;rounded=1;labelBackgroundColor=default;strokeColor=default;fontFamily=Helvetica;fontSize=11;fontColor=default;shape=connector;exitX=0.5;exitY=0;exitDx=0;exitDy=0;" edge="1" parent="WIyWlLk6GJQsqaUBKTNV-1" source="4zYl6FvHi3WPqrHE8KtG-8">
          <mxGeometry width="50" height="50" relative="1" as="geometry">
            <mxPoint x="970" y="300.08" as="sourcePoint" />
            <mxPoint x="1020" y="250.08" as="targetPoint" />
          </mxGeometry>
        </mxCell>
        <mxCell id="4zYl6FvHi3WPqrHE8KtG-10" value="Augstums+" style="rounded=1;whiteSpace=wrap;html=1;" vertex="1" parent="WIyWlLk6GJQsqaUBKTNV-1">
          <mxGeometry x="1140" y="180" width="120" height="60" as="geometry" />
        </mxCell>
        <mxCell id="4zYl6FvHi3WPqrHE8KtG-11" value="" style="endArrow=none;html=1;rounded=1;exitX=0.5;exitY=0;exitDx=0;exitDy=0;entryX=1;entryY=0.5;entryDx=0;entryDy=0;" edge="1" parent="WIyWlLk6GJQsqaUBKTNV-1" source="4zYl6FvHi3WPqrHE8KtG-10" target="lfGS22Z028f2h3oNydvS-21">
          <mxGeometry width="50" height="50" relative="1" as="geometry">
            <mxPoint x="1250" y="130" as="sourcePoint" />
            <mxPoint x="1300" y="80" as="targetPoint" />
            <Array as="points">
              <mxPoint x="1200" y="40" />
            </Array>
          </mxGeometry>
        </mxCell>
        <mxCell id="4zYl6FvHi3WPqrHE8KtG-12" value="↑" style="ellipse;whiteSpace=wrap;html=1;rounded=1;labelBackgroundColor=none;" vertex="1" parent="WIyWlLk6GJQsqaUBKTNV-1">
          <mxGeometry x="1185" y="280" width="30" height="30" as="geometry" />
        </mxCell>
        <mxCell id="4zYl6FvHi3WPqrHE8KtG-13" value="" style="endArrow=none;html=1;rounded=1;labelBackgroundColor=default;strokeColor=default;fontFamily=Helvetica;fontSize=11;fontColor=default;shape=connector;exitX=0.5;exitY=0;exitDx=0;exitDy=0;" edge="1" parent="WIyWlLk6GJQsqaUBKTNV-1" source="4zYl6FvHi3WPqrHE8KtG-12">
          <mxGeometry width="50" height="50" relative="1" as="geometry">
            <mxPoint x="1150" y="290" as="sourcePoint" />
            <mxPoint x="1200" y="240" as="targetPoint" />
          </mxGeometry>
        </mxCell>
        <mxCell id="4zYl6FvHi3WPqrHE8KtG-14" value="Augstums-" style="rounded=1;whiteSpace=wrap;html=1;" vertex="1" parent="WIyWlLk6GJQsqaUBKTNV-1">
          <mxGeometry x="1320" y="180" width="120" height="60" as="geometry" />
        </mxCell>
        <mxCell id="4zYl6FvHi3WPqrHE8KtG-15" value="" style="endArrow=none;html=1;rounded=1;exitX=0.5;exitY=0;exitDx=0;exitDy=0;" edge="1" parent="WIyWlLk6GJQsqaUBKTNV-1" source="4zYl6FvHi3WPqrHE8KtG-14">
          <mxGeometry width="50" height="50" relative="1" as="geometry">
            <mxPoint x="1430" y="140.08" as="sourcePoint" />
            <mxPoint x="1010" y="40" as="targetPoint" />
            <Array as="points">
              <mxPoint x="1380" y="40" />
            </Array>
          </mxGeometry>
        </mxCell>
        <mxCell id="4zYl6FvHi3WPqrHE8KtG-16" value="↓" style="ellipse;whiteSpace=wrap;html=1;rounded=1;labelBackgroundColor=none;" vertex="1" parent="WIyWlLk6GJQsqaUBKTNV-1">
          <mxGeometry x="1365" y="280" width="30" height="30" as="geometry" />
        </mxCell>
        <mxCell id="4zYl6FvHi3WPqrHE8KtG-17" value="" style="endArrow=none;html=1;rounded=1;labelBackgroundColor=default;strokeColor=default;fontFamily=Helvetica;fontSize=11;fontColor=default;shape=connector;exitX=0.5;exitY=0;exitDx=0;exitDy=0;" edge="1" parent="WIyWlLk6GJQsqaUBKTNV-1" source="4zYl6FvHi3WPqrHE8KtG-16">
          <mxGeometry width="50" height="50" relative="1" as="geometry">
            <mxPoint x="1330" y="300.08" as="sourcePoint" />
            <mxPoint x="1380" y="250.08000000000004" as="targetPoint" />
          </mxGeometry>
        </mxCell>
        <mxCell id="4zYl6FvHi3WPqrHE8KtG-18" value="Pa labi" style="rounded=1;whiteSpace=wrap;html=1;fontFamily=Helvetica;fontSize=11;fontColor=default;" vertex="1" parent="WIyWlLk6GJQsqaUBKTNV-1">
          <mxGeometry x="870" y="-260" width="120" height="60" as="geometry" />
        </mxCell>
        <mxCell id="4zYl6FvHi3WPqrHE8KtG-19" value="Pa kreisi" style="rounded=1;whiteSpace=wrap;html=1;fontFamily=Helvetica;fontSize=11;fontColor=default;" vertex="1" parent="WIyWlLk6GJQsqaUBKTNV-1">
          <mxGeometry x="862" y="-90" width="120" height="60" as="geometry" />
        </mxCell>
        <mxCell id="4zYl6FvHi3WPqrHE8KtG-20" value="" style="endArrow=none;html=1;rounded=1;labelBackgroundColor=default;strokeColor=default;fontFamily=Helvetica;fontSize=11;fontColor=default;shape=connector;entryX=0;entryY=0.5;entryDx=0;entryDy=0;exitX=0.5;exitY=0;exitDx=0;exitDy=0;" edge="1" parent="WIyWlLk6GJQsqaUBKTNV-1" source="lfGS22Z028f2h3oNydvS-46" target="4zYl6FvHi3WPqrHE8KtG-18">
          <mxGeometry width="50" height="50" relative="1" as="geometry">
            <mxPoint x="810" y="-130" as="sourcePoint" />
            <mxPoint x="860" y="-180" as="targetPoint" />
            <Array as="points">
              <mxPoint x="780" y="-230" />
            </Array>
          </mxGeometry>
        </mxCell>
        <mxCell id="4zYl6FvHi3WPqrHE8KtG-21" value="" style="endArrow=none;html=1;rounded=1;labelBackgroundColor=default;strokeColor=default;fontFamily=Helvetica;fontSize=11;fontColor=default;shape=connector;exitX=0.5;exitY=1;exitDx=0;exitDy=0;entryX=0;entryY=0.5;entryDx=0;entryDy=0;" edge="1" parent="WIyWlLk6GJQsqaUBKTNV-1" source="lfGS22Z028f2h3oNydvS-46" target="4zYl6FvHi3WPqrHE8KtG-19">
          <mxGeometry width="50" height="50" relative="1" as="geometry">
            <mxPoint x="810" y="-30" as="sourcePoint" />
            <mxPoint x="860" y="-80" as="targetPoint" />
            <Array as="points">
              <mxPoint x="780" y="-60" />
            </Array>
          </mxGeometry>
        </mxCell>
        <mxCell id="4zYl6FvHi3WPqrHE8KtG-22" value="z" style="ellipse;whiteSpace=wrap;html=1;rounded=1;labelBackgroundColor=none;" vertex="1" parent="WIyWlLk6GJQsqaUBKTNV-1">
          <mxGeometry x="1030" y="-75" width="30" height="30" as="geometry" />
        </mxCell>
        <mxCell id="4zYl6FvHi3WPqrHE8KtG-23" value="" style="endArrow=none;html=1;rounded=1;labelBackgroundColor=default;strokeColor=default;fontFamily=Helvetica;fontSize=11;fontColor=default;shape=connector;exitX=1;exitY=0.5;exitDx=0;exitDy=0;entryX=0;entryY=0.5;entryDx=0;entryDy=0;" edge="1" parent="WIyWlLk6GJQsqaUBKTNV-1" source="4zYl6FvHi3WPqrHE8KtG-19" target="4zYl6FvHi3WPqrHE8KtG-22">
          <mxGeometry width="50" height="50" relative="1" as="geometry">
            <mxPoint x="1000" y="-80" as="sourcePoint" />
            <mxPoint x="1050" y="-130" as="targetPoint" />
          </mxGeometry>
        </mxCell>
        <mxCell id="4zYl6FvHi3WPqrHE8KtG-24" value="x" style="ellipse;whiteSpace=wrap;html=1;rounded=1;labelBackgroundColor=none;" vertex="1" parent="WIyWlLk6GJQsqaUBKTNV-1">
          <mxGeometry x="1030" y="-245" width="30" height="30" as="geometry" />
        </mxCell>
        <mxCell id="4zYl6FvHi3WPqrHE8KtG-25" value="" style="endArrow=none;html=1;rounded=1;labelBackgroundColor=default;strokeColor=default;fontFamily=Helvetica;fontSize=11;fontColor=default;shape=connector;exitX=1;exitY=0.5;exitDx=0;exitDy=0;entryX=0;entryY=0.5;entryDx=0;entryDy=0;" edge="1" parent="WIyWlLk6GJQsqaUBKTNV-1" target="4zYl6FvHi3WPqrHE8KtG-24">
          <mxGeometry width="50" height="50" relative="1" as="geometry">
            <mxPoint x="990" y="-230" as="sourcePoint" />
            <mxPoint x="1058" y="-300" as="targetPoint" />
          </mxGeometry>
        </mxCell>
      </root>
    </mxGraphModel>
  </diagram>
</mxfile>
